<svg xmlns="http://www.w3.org/2000/svg" xmlns:xlink="http://www.w3.org/1999/xlink" contentStyleType="text/css" data-diagram-type="CLASS" height="890px" preserveAspectRatio="none" style="width:720px;height:890px;background:#FFFFFF;" version="1.1" viewBox="0 0 720 890" width="720px" zoomAndPan="magnify"><title>&#65039; Healthy Meal Planner - UML Class Diagram</title><defs/><g><text fill="#000000" font-family="sans-serif" font-size="14" font-weight="bold" lengthAdjust="spacing" textLength="341.9199" x="182.085" y="22.9951">&#65039; Healthy Meal Planner - UML Class Diagram</text><!--class User--><g id="elem_User"><rect codeLine="13" fill="#F1F1F1" height="194.6719" id="User" rx="2.5" ry="2.5" style="stroke:#181818;stroke-width:0.5;" width="187.6836" x="309" y="44.2969"/><ellipse cx="382.6367" cy="60.2969" fill="#ADD1B2" rx="11" ry="11" style="stroke:#181818;stroke-width:1;"/><path d="M385.6055,65.9375 Q385.0273,66.2344 384.3867,66.375 Q383.7461,66.5313 383.043,66.5313 Q380.543,66.5313 379.2148,64.8906 Q377.9023,63.2344 377.9023,60.1094 Q377.9023,56.9844 379.2148,55.3281 Q380.543,53.6719 383.043,53.6719 Q383.7461,53.6719 384.3867,53.8281 Q385.043,53.9844 385.6055,54.2813 L385.6055,57 Q384.9805,56.4219 384.3867,56.1563 Q383.793,55.875 383.168,55.875 Q381.8242,55.875 381.1367,56.9531 Q380.4492,58.0156 380.4492,60.1094 Q380.4492,62.2031 381.1367,63.2813 Q381.8242,64.3438 383.168,64.3438 Q383.793,64.3438 384.3867,64.0781 Q384.9805,63.7969 385.6055,63.2188 L385.6055,65.9375 Z " fill="#000000"/><text fill="#000000" font-family="sans-serif" font-size="14" lengthAdjust="spacing" textLength="31.9102" x="403.1367" y="65.1436">User</text><line style="stroke:#181818;stroke-width:0.5;" x1="310" x2="495.6836" y1="76.2969" y2="76.2969"/><text fill="#000000" font-family="sans-serif" font-size="14" lengthAdjust="spacing" textLength="47.4482" x="315" y="93.292">+int Id</text><text fill="#000000" font-family="sans-serif" font-size="14" lengthAdjust="spacing" textLength="95.2109" x="315" y="109.5889">+string Email</text><text fill="#000000" font-family="sans-serif" font-size="14" lengthAdjust="spacing" textLength="157.9102" x="315" y="125.8857">+string PasswordHash</text><text fill="#000000" font-family="sans-serif" font-size="14" lengthAdjust="spacing" textLength="97.6719" x="315" y="142.1826">+string Name</text><text fill="#000000" font-family="sans-serif" font-size="14" lengthAdjust="spacing" textLength="61.5098" x="315" y="158.4795">+int Age</text><text fill="#000000" font-family="sans-serif" font-size="14" lengthAdjust="spacing" textLength="107.96" x="315" y="174.7764">+string Gender</text><text fill="#000000" font-family="sans-serif" font-size="14" lengthAdjust="spacing" textLength="175.6836" x="315" y="191.0732">+string ProfileImagePath</text><text fill="#000000" font-family="sans-serif" font-size="14" lengthAdjust="spacing" textLength="102.375" x="315" y="207.3701">+bool IsAdmin</text><text fill="#000000" font-family="sans-serif" font-size="14" lengthAdjust="spacing" textLength="155.1143" x="315" y="223.667">+DateTime CreatedAt</text><line style="stroke:#181818;stroke-width:0.5;" x1="310" x2="495.6836" y1="230.9688" y2="230.9688"/></g><!--class DietGoal--><g id="elem_DietGoal"><rect codeLine="25" fill="#F1F1F1" height="80.5938" id="DietGoal" rx="2.5" ry="2.5" style="stroke:#181818;stroke-width:0.5;" width="106.1377" x="7" y="307.2969"/><ellipse cx="28.0671" cy="323.2969" fill="#ADD1B2" rx="11" ry="11" style="stroke:#181818;stroke-width:1;"/><path d="M31.0358,328.9375 Q30.4577,329.2344 29.8171,329.375 Q29.1765,329.5313 28.4733,329.5313 Q25.9733,329.5313 24.6452,327.8906 Q23.3327,326.2344 23.3327,323.1094 Q23.3327,319.9844 24.6452,318.3281 Q25.9733,316.6719 28.4733,316.6719 Q29.1765,316.6719 29.8171,316.8281 Q30.4733,316.9844 31.0358,317.2813 L31.0358,320 Q30.4108,319.4219 29.8171,319.1563 Q29.2233,318.875 28.5983,318.875 Q27.2546,318.875 26.5671,319.9531 Q25.8796,321.0156 25.8796,323.1094 Q25.8796,325.2031 26.5671,326.2813 Q27.2546,327.3438 28.5983,327.3438 Q29.2233,327.3438 29.8171,327.0781 Q30.4108,326.7969 31.0358,326.2188 L31.0358,328.9375 Z " fill="#000000"/><text fill="#000000" font-family="sans-serif" font-size="14" lengthAdjust="spacing" textLength="60.6553" x="43.4153" y="328.1436">DietGoal</text><line style="stroke:#181818;stroke-width:0.5;" x1="8" x2="112.1377" y1="339.2969" y2="339.2969"/><text fill="#000000" font-family="sans-serif" font-size="14" lengthAdjust="spacing" textLength="47.4482" x="13" y="356.292">+int Id</text><text fill="#000000" font-family="sans-serif" font-size="14" lengthAdjust="spacing" textLength="94.1377" x="13" y="372.5889">+string Label</text><line style="stroke:#181818;stroke-width:0.5;" x1="8" x2="112.1377" y1="379.8906" y2="379.8906"/></g><!--class DietType--><g id="elem_DietType"><rect codeLine="30" fill="#F1F1F1" height="80.5938" id="DietType" rx="2.5" ry="2.5" style="stroke:#181818;stroke-width:0.5;" width="106.1377" x="148" y="307.2969"/><ellipse cx="167.9627" cy="323.2969" fill="#ADD1B2" rx="11" ry="11" style="stroke:#181818;stroke-width:1;"/><path d="M170.9315,328.9375 Q170.3534,329.2344 169.7127,329.375 Q169.0721,329.5313 168.369,329.5313 Q165.869,329.5313 164.5409,327.8906 Q163.2284,326.2344 163.2284,323.1094 Q163.2284,319.9844 164.5409,318.3281 Q165.869,316.6719 168.369,316.6719 Q169.0721,316.6719 169.7127,316.8281 Q170.369,316.9844 170.9315,317.2813 L170.9315,320 Q170.3065,319.4219 169.7127,319.1563 Q169.119,318.875 168.494,318.875 Q167.1502,318.875 166.4627,319.9531 Q165.7752,321.0156 165.7752,323.1094 Q165.7752,325.2031 166.4627,326.2813 Q167.1502,327.3438 168.494,327.3438 Q169.119,327.3438 169.7127,327.0781 Q170.3065,326.7969 170.9315,326.2188 L170.9315,328.9375 Z " fill="#000000"/><text fill="#000000" font-family="sans-serif" font-size="14" lengthAdjust="spacing" textLength="63.1094" x="183.0656" y="328.1436">DietType</text><line style="stroke:#181818;stroke-width:0.5;" x1="149" x2="253.1377" y1="339.2969" y2="339.2969"/><text fill="#000000" font-family="sans-serif" font-size="14" lengthAdjust="spacing" textLength="47.4482" x="154" y="356.292">+int Id</text><text fill="#000000" font-family="sans-serif" font-size="14" lengthAdjust="spacing" textLength="94.1377" x="154" y="372.5889">+string Label</text><line style="stroke:#181818;stroke-width:0.5;" x1="149" x2="253.1377" y1="379.8906" y2="379.8906"/></g><!--class Allergy--><g id="elem_Allergy"><rect codeLine="35" fill="#F1F1F1" height="80.5938" id="Allergy" rx="2.5" ry="2.5" style="stroke:#181818;stroke-width:0.5;" width="106.1377" x="289" y="307.2969"/><ellipse cx="315.3581" cy="323.2969" fill="#ADD1B2" rx="11" ry="11" style="stroke:#181818;stroke-width:1;"/><path d="M318.3269,328.9375 Q317.7487,329.2344 317.1081,329.375 Q316.4675,329.5313 315.7644,329.5313 Q313.2644,329.5313 311.9362,327.8906 Q310.6237,326.2344 310.6237,323.1094 Q310.6237,319.9844 311.9362,318.3281 Q313.2644,316.6719 315.7644,316.6719 Q316.4675,316.6719 317.1081,316.8281 Q317.7644,316.9844 318.3269,317.2813 L318.3269,320 Q317.7019,319.4219 317.1081,319.1563 Q316.5144,318.875 315.8894,318.875 Q314.5456,318.875 313.8581,319.9531 Q313.1706,321.0156 313.1706,323.1094 Q313.1706,325.2031 313.8581,326.2813 Q314.5456,327.3438 315.8894,327.3438 Q316.5144,327.3438 317.1081,327.0781 Q317.7019,326.7969 318.3269,326.2188 L318.3269,328.9375 Z " fill="#000000"/><text fill="#000000" font-family="sans-serif" font-size="14" lengthAdjust="spacing" textLength="48.8975" x="331.8821" y="328.1436">Allergy</text><line style="stroke:#181818;stroke-width:0.5;" x1="290" x2="394.1377" y1="339.2969" y2="339.2969"/><text fill="#000000" font-family="sans-serif" font-size="14" lengthAdjust="spacing" textLength="47.4482" x="295" y="356.292">+int Id</text><text fill="#000000" font-family="sans-serif" font-size="14" lengthAdjust="spacing" textLength="94.1377" x="295" y="372.5889">+string Label</text><line style="stroke:#181818;stroke-width:0.5;" x1="290" x2="394.1377" y1="379.8906" y2="379.8906"/></g><!--class Recipe--><g id="elem_Recipe"><rect codeLine="47" fill="#F1F1F1" height="129.4844" id="Recipe" rx="2.5" ry="2.5" style="stroke:#181818;stroke-width:0.5;" width="150.5918" x="372.5" y="456.2969"/><ellipse cx="419.832" cy="472.2969" fill="#ADD1B2" rx="11" ry="11" style="stroke:#181818;stroke-width:1;"/><path d="M422.8008,477.9375 Q422.2227,478.2344 421.582,478.375 Q420.9414,478.5313 420.2383,478.5313 Q417.7383,478.5313 416.4102,476.8906 Q415.0977,475.2344 415.0977,472.1094 Q415.0977,468.9844 416.4102,467.3281 Q417.7383,465.6719 420.2383,465.6719 Q420.9414,465.6719 421.582,465.8281 Q422.2383,465.9844 422.8008,466.2813 L422.8008,469 Q422.1758,468.4219 421.582,468.1563 Q420.9883,467.875 420.3633,467.875 Q419.0195,467.875 418.332,468.9531 Q417.6445,470.0156 417.6445,472.1094 Q417.6445,474.2031 418.332,475.2813 Q419.0195,476.3438 420.3633,476.3438 Q420.9883,476.3438 421.582,476.0781 Q422.1758,475.7969 422.8008,475.2188 L422.8008,477.9375 Z " fill="#000000"/><text fill="#000000" font-family="sans-serif" font-size="14" lengthAdjust="spacing" textLength="47.4277" x="440.332" y="477.1436">Recipe</text><line style="stroke:#181818;stroke-width:0.5;" x1="373.5" x2="522.0918" y1="488.2969" y2="488.2969"/><text fill="#000000" font-family="sans-serif" font-size="14" lengthAdjust="spacing" textLength="47.4482" x="378.5" y="505.292">+int Id</text><text fill="#000000" font-family="sans-serif" font-size="14" lengthAdjust="spacing" textLength="86.8027" x="378.5" y="521.5889">+string Title</text><text fill="#000000" font-family="sans-serif" font-size="14" lengthAdjust="spacing" textLength="120.1074" x="378.5" y="537.8857">+string ImageUrl</text><text fill="#000000" font-family="sans-serif" font-size="14" lengthAdjust="spacing" textLength="138.5918" x="378.5" y="554.1826">+string Instructions</text><text fill="#000000" font-family="sans-serif" font-size="14" lengthAdjust="spacing" textLength="99.1895" x="378.5" y="570.4795">+bool IsPublic</text><line style="stroke:#181818;stroke-width:0.5;" x1="373.5" x2="522.0918" y1="577.7813" y2="577.7813"/></g><!--class Ingredient--><g id="elem_Ingredient"><rect codeLine="55" fill="#F1F1F1" height="96.8906" id="Ingredient" rx="2.5" ry="2.5" style="stroke:#181818;stroke-width:0.5;" width="109.6719" x="393" y="786.2969"/><ellipse cx="410.5479" cy="802.2969" fill="#ADD1B2" rx="11" ry="11" style="stroke:#181818;stroke-width:1;"/><path d="M413.5167,807.9375 Q412.9386,808.2344 412.2979,808.375 Q411.6573,808.5313 410.9542,808.5313 Q408.4542,808.5313 407.1261,806.8906 Q405.8136,805.2344 405.8136,802.1094 Q405.8136,798.9844 407.1261,797.3281 Q408.4542,795.6719 410.9542,795.6719 Q411.6573,795.6719 412.2979,795.8281 Q412.9542,795.9844 413.5167,796.2813 L413.5167,799 Q412.8917,798.4219 412.2979,798.1563 Q411.7042,797.875 411.0792,797.875 Q409.7354,797.875 409.0479,798.9531 Q408.3604,800.0156 408.3604,802.1094 Q408.3604,804.2031 409.0479,805.2813 Q409.7354,806.3438 411.0792,806.3438 Q411.7042,806.3438 412.2979,806.0781 Q412.8917,805.7969 413.5167,805.2188 L413.5167,807.9375 Z " fill="#000000"/><text fill="#000000" font-family="sans-serif" font-size="14" lengthAdjust="spacing" textLength="72.0098" x="425.1142" y="807.1436">Ingredient</text><line style="stroke:#181818;stroke-width:0.5;" x1="394" x2="501.6719" y1="818.2969" y2="818.2969"/><text fill="#000000" font-family="sans-serif" font-size="14" lengthAdjust="spacing" textLength="47.4482" x="399" y="835.292">+int Id</text><text fill="#000000" font-family="sans-serif" font-size="14" lengthAdjust="spacing" textLength="97.6719" x="399" y="851.5889">+string Name</text><text fill="#000000" font-family="sans-serif" font-size="14" lengthAdjust="spacing" textLength="84.8682" x="399" y="867.8857">+string Unit</text><line style="stroke:#181818;stroke-width:0.5;" x1="394" x2="501.6719" y1="875.1875" y2="875.1875"/></g><!--class RecipeIngredient--><g id="elem_RecipeIngredient"><rect codeLine="61" fill="#F1F1F1" height="64.2969" id="RecipeIngredient" rx="2.5" ry="2.5" style="stroke:#181818;stroke-width:0.5;" width="151.4375" x="372.5" y="653.7969"/><ellipse cx="387.5" cy="669.7969" fill="#ADD1B2" rx="11" ry="11" style="stroke:#181818;stroke-width:1;"/><path d="M390.4688,675.4375 Q389.8906,675.7344 389.25,675.875 Q388.6094,676.0313 387.9063,676.0313 Q385.4063,676.0313 384.0781,674.3906 Q382.7656,672.7344 382.7656,669.6094 Q382.7656,666.4844 384.0781,664.8281 Q385.4063,663.1719 387.9063,663.1719 Q388.6094,663.1719 389.25,663.3281 Q389.9063,663.4844 390.4688,663.7813 L390.4688,666.5 Q389.8438,665.9219 389.25,665.6563 Q388.6563,665.375 388.0313,665.375 Q386.6875,665.375 386,666.4531 Q385.3125,667.5156 385.3125,669.6094 Q385.3125,671.7031 386,672.7813 Q386.6875,673.8438 388.0313,673.8438 Q388.6563,673.8438 389.25,673.5781 Q389.8438,673.2969 390.4688,672.7188 L390.4688,675.4375 Z " fill="#000000"/><text fill="#000000" font-family="sans-serif" font-size="14" lengthAdjust="spacing" textLength="119.4375" x="401.5" y="674.6436">RecipeIngredient</text><line style="stroke:#181818;stroke-width:0.5;" x1="373.5" x2="522.9375" y1="685.7969" y2="685.7969"/><text fill="#000000" font-family="sans-serif" font-size="14" lengthAdjust="spacing" textLength="108.1309" x="378.5" y="702.792">+float Quantity</text><line style="stroke:#181818;stroke-width:0.5;" x1="373.5" x2="522.9375" y1="710.0938" y2="710.0938"/></g><!--class ShoppingList--><g id="elem_ShoppingList"><rect codeLine="77" fill="#F1F1F1" height="96.8906" id="ShoppingList" rx="2.5" ry="2.5" style="stroke:#181818;stroke-width:0.5;" width="167.1143" x="543.5" y="299.2969"/><ellipse cx="578.7021" cy="315.2969" fill="#ADD1B2" rx="11" ry="11" style="stroke:#181818;stroke-width:1;"/><path d="M581.6708,320.9375 Q581.0927,321.2344 580.4521,321.375 Q579.8115,321.5313 579.1083,321.5313 Q576.6083,321.5313 575.2802,319.8906 Q573.9677,318.2344 573.9677,315.1094 Q573.9677,311.9844 575.2802,310.3281 Q576.6083,308.6719 579.1083,308.6719 Q579.8115,308.6719 580.4521,308.8281 Q581.1083,308.9844 581.6708,309.2813 L581.6708,312 Q581.0458,311.4219 580.4521,311.1563 Q579.8583,310.875 579.2333,310.875 Q577.8896,310.875 577.2021,311.9531 Q576.5146,313.0156 576.5146,315.1094 Q576.5146,317.2031 577.2021,318.2813 Q577.8896,319.3438 579.2333,319.3438 Q579.8583,319.3438 580.4521,319.0781 Q581.0458,318.7969 581.6708,318.2188 L581.6708,320.9375 Z " fill="#000000"/><text fill="#000000" font-family="sans-serif" font-size="14" lengthAdjust="spacing" textLength="90.2207" x="597.1915" y="320.1436">ShoppingList</text><line style="stroke:#181818;stroke-width:0.5;" x1="544.5" x2="709.6143" y1="331.2969" y2="331.2969"/><text fill="#000000" font-family="sans-serif" font-size="14" lengthAdjust="spacing" textLength="47.4482" x="549.5" y="348.292">+int Id</text><text fill="#000000" font-family="sans-serif" font-size="14" lengthAdjust="spacing" textLength="86.8027" x="549.5" y="364.5889">+string Title</text><text fill="#000000" font-family="sans-serif" font-size="14" lengthAdjust="spacing" textLength="155.1143" x="549.5" y="380.8857">+DateTime CreatedAt</text><line style="stroke:#181818;stroke-width:0.5;" x1="544.5" x2="709.6143" y1="388.1875" y2="388.1875"/></g><!--class ShoppingListItem--><g id="elem_ShoppingListItem"><rect codeLine="83" fill="#F1F1F1" height="80.5938" id="ShoppingListItem" rx="2.5" ry="2.5" style="stroke:#181818;stroke-width:0.5;" width="154.0898" x="559" y="645.2969"/><ellipse cx="574" cy="661.2969" fill="#ADD1B2" rx="11" ry="11" style="stroke:#181818;stroke-width:1;"/><path d="M576.9688,666.9375 Q576.3906,667.2344 575.75,667.375 Q575.1094,667.5313 574.4063,667.5313 Q571.9063,667.5313 570.5781,665.8906 Q569.2656,664.2344 569.2656,661.1094 Q569.2656,657.9844 570.5781,656.3281 Q571.9063,654.6719 574.4063,654.6719 Q575.1094,654.6719 575.75,654.8281 Q576.4063,654.9844 576.9688,655.2813 L576.9688,658 Q576.3438,657.4219 575.75,657.1563 Q575.1563,656.875 574.5313,656.875 Q573.1875,656.875 572.5,657.9531 Q571.8125,659.0156 571.8125,661.1094 Q571.8125,663.2031 572.5,664.2813 Q573.1875,665.3438 574.5313,665.3438 Q575.1563,665.3438 575.75,665.0781 Q576.3438,664.7969 576.9688,664.2188 L576.9688,666.9375 Z " fill="#000000"/><text fill="#000000" font-family="sans-serif" font-size="14" lengthAdjust="spacing" textLength="122.0898" x="588" y="666.1436">ShoppingListItem</text><line style="stroke:#181818;stroke-width:0.5;" x1="560" x2="712.0898" y1="677.2969" y2="677.2969"/><text fill="#000000" font-family="sans-serif" font-size="14" lengthAdjust="spacing" textLength="108.1309" x="565" y="694.292">+float Quantity</text><text fill="#000000" font-family="sans-serif" font-size="14" lengthAdjust="spacing" textLength="106.6543" x="565" y="710.5889">+bool Checked</text><line style="stroke:#181818;stroke-width:0.5;" x1="560" x2="712.0898" y1="717.8906" y2="717.8906"/></g><!--link User to DietGoal--><g id="link_User_DietGoal"><path codeLine="40" d="M308.82,109.2969 C207.28,109.2969 60,109.2969 60,109.2969 C60,109.2969 60,238.9469 60,307.0669 " fill="transparent" id="User-DietGoal" style="stroke:#181818;stroke-width:1;"/><polygon fill="#000000" points="38.6058,103.9744,47.5153,100.647,43.858,96.0456,38.6058,103.9744" style="stroke:#000000;stroke-width:1;"/><text fill="#000000" font-family="sans-serif" font-size="13" lengthAdjust="spacing" textLength="33.9092" x="51.52" y="105.3638">heeft</text><text fill="#000000" font-family="sans-serif" font-size="13" lengthAdjust="spacing" textLength="8.271" x="292.7138" y="103.0704">1</text><text fill="#000000" font-family="sans-serif" font-size="13" lengthAdjust="spacing" textLength="36.5625" x="21.0539" y="296.1903">many</text></g><!--link User to DietType--><g id="link_User_DietType"><path codeLine="41" d="M308.8,174.2969 C256.14,174.2969 201,174.2969 201,174.2969 C201,174.2969 201,255.8369 201,307.1169 " fill="transparent" id="User-DietType" style="stroke:#181818;stroke-width:1;"/><polygon fill="#000000" points="155.8491,182.2555,163.8311,177.0846,159.2672,173.3804,155.8491,182.2555" style="stroke:#000000;stroke-width:1;"/><text fill="#000000" font-family="sans-serif" font-size="13" lengthAdjust="spacing" textLength="32.6079" x="168" y="182.8738">volgt</text><text fill="#000000" font-family="sans-serif" font-size="13" lengthAdjust="spacing" textLength="8.271" x="292.6921" y="173.4532">1</text><text fill="#000000" font-family="sans-serif" font-size="13" lengthAdjust="spacing" textLength="36.5625" x="162.0539" y="296.2486">many</text></g><!--link User to Allergy--><g id="link_User_Allergy"><path codeLine="42" d="M352,239.3669 C352,263.2869 352,287.5969 352,307.1169 " fill="transparent" id="User-Allergy" style="stroke:#181818;stroke-width:1;"/><polygon fill="#000000" points="247,269.8133,249.9389,260.7682,244.0611,260.7682,247,269.8133" style="stroke:#000000;stroke-width:1;"/><text fill="#000000" font-family="sans-serif" font-size="13" lengthAdjust="spacing" textLength="95.6338" x="256" y="269.3138">allergisch voor</text><text fill="#000000" font-family="sans-serif" font-size="13" lengthAdjust="spacing" textLength="8.271" x="339.9825" y="259.1668">1</text><text fill="#000000" font-family="sans-serif" font-size="13" lengthAdjust="spacing" textLength="36.5625" x="314.7102" y="296.2486">many</text></g><!--link User to Recipe--><g id="link_User_Recipe"><path codeLine="65" d="M420.5,239.3969 C420.5,307.6069 420.5,396.7769 420.5,456.2769 " fill="transparent" id="User-Recipe" style="stroke:#181818;stroke-width:1;"/><polygon fill="#000000" points="425.5,344.4033,428.4389,335.3582,422.5611,335.3582,425.5,344.4033" style="stroke:#000000;stroke-width:1;"/><text fill="#000000" font-family="sans-serif" font-size="13" lengthAdjust="spacing" textLength="41.2217" x="434.5" y="343.9038">maakt</text><text fill="#000000" font-family="sans-serif" font-size="13" lengthAdjust="spacing" textLength="8.271" x="413.513" y="259.199">1</text><text fill="#000000" font-family="sans-serif" font-size="13" lengthAdjust="spacing" textLength="36.5625" x="379.5765" y="445.4474">many</text></g><!--link User to Recipe--><g id="link_User_Recipe"><path codeLine="66" d="M446,239.3969 C446,307.6069 446,396.7769 446,456.2769 " fill="transparent" id="User-Recipe-1" style="stroke:#181818;stroke-width:1;"/><polygon fill="#000000" points="451,361.4033,453.9389,352.3582,448.0611,352.3582,451,361.4033" style="stroke:#000000;stroke-width:1;"/><text fill="#000000" font-family="sans-serif" font-size="13" lengthAdjust="spacing" textLength="50.2417" x="460" y="360.9038">favoriet</text><text fill="#000000" font-family="sans-serif" font-size="13" lengthAdjust="spacing" textLength="36.5625" x="431.1901" y="259.199">many</text><text fill="#000000" font-family="sans-serif" font-size="13" lengthAdjust="spacing" textLength="36.5625" x="447.8031" y="445.4474">many</text></g><!--link DietType to Recipe--><g id="link_DietType_Recipe"><path codeLine="67" d="M201,388.4769 C201,439.7569 201,521.2969 201,521.2969 C201,521.2969 299.61,521.2969 372.21,521.2969 " fill="transparent" id="DietType-Recipe" style="stroke:#181818;stroke-width:1;"/><polygon fill="#000000" points="127.1506,515.928,121.8053,508.0617,118.2025,512.7059,127.1506,515.928" style="stroke:#000000;stroke-width:1;"/><text fill="#000000" font-family="sans-serif" font-size="13" lengthAdjust="spacing" textLength="87.7246" x="132.2" y="517.3638">geschikt voor</text><text fill="#000000" font-family="sans-serif" font-size="13" lengthAdjust="spacing" textLength="8.271" x="192.3977" y="407.9626">1</text><text fill="#000000" font-family="sans-serif" font-size="13" lengthAdjust="spacing" textLength="36.5625" x="327.9001" y="517.7247">many</text></g><!--link Recipe to RecipeIngredient--><g id="link_Recipe_RecipeIngredient"><path codeLine="69" d="M422.83,585.5369 C422.83,608.8269 422.83,634.1069 422.83,653.4569 " fill="transparent" id="Recipe-RecipeIngredient" style="stroke:#181818;stroke-width:1;"/><text fill="#000000" font-family="sans-serif" font-size="13" lengthAdjust="spacing" textLength="8.271" x="411.4965" y="605.9362">1</text><text fill="#000000" font-family="sans-serif" font-size="13" lengthAdjust="spacing" textLength="36.5625" x="378.3432" y="642.6641">many</text></g><!--link RecipeIngredient to Recipe--><g id="link_RecipeIngredient_Recipe"><path codeLine="71" d="M473.17,653.5869 C473.17,634.1769 473.17,614.7569 473.17,591.3569 " fill="transparent" id="RecipeIngredient-to-Recipe" style="stroke:#181818;stroke-width:1;"/><polygon fill="#181818" points="473.17,585.3569,469.17,594.3569,473.17,590.3569,477.17,594.3569,473.17,585.3569" style="stroke:#181818;stroke-width:1;"/></g><!--link Ingredient to RecipeIngredient--><g id="link_Ingredient_RecipeIngredient"><path codeLine="70" d="M420.5,786.0069 C420.5,763.7769 420.5,738.0569 420.5,718.2369 " fill="transparent" id="Ingredient-RecipeIngredient" style="stroke:#181818;stroke-width:1;"/><text fill="#000000" font-family="sans-serif" font-size="13" lengthAdjust="spacing" textLength="8.271" x="408.1124" y="775.175">1</text><text fill="#000000" font-family="sans-serif" font-size="13" lengthAdjust="spacing" textLength="36.5625" x="375.5545" y="738.1508">many</text></g><!--link RecipeIngredient to Ingredient--><g id="link_RecipeIngredient_Ingredient"><path codeLine="72" d="M448,718.1269 C448,737.9869 448,757.7969 448,780.0969 " fill="transparent" id="RecipeIngredient-to-Ingredient" style="stroke:#181818;stroke-width:1;"/><polygon fill="#181818" points="448,786.0969,452,777.0969,448,781.0969,444,777.0969,448,786.0969" style="stroke:#181818;stroke-width:1;"/></g><!--link User to ShoppingList--><g id="link_User_ShoppingList"><path codeLine="88" d="M471.5,239.4669 C471.5,273.4769 471.5,303.2969 471.5,303.2969 C471.5,303.2969 506.53,303.2969 543.33,303.2969 " fill="transparent" id="User-ShoppingList" style="stroke:#181818;stroke-width:1;"/><text fill="#000000" font-family="sans-serif" font-size="13" lengthAdjust="spacing" textLength="8.271" x="468.0558" y="258.9447">1</text><text fill="#000000" font-family="sans-serif" font-size="13" lengthAdjust="spacing" textLength="36.5625" x="498.929" y="296.0675">many</text></g><!--link ShoppingList to ShoppingListItem--><g id="link_ShoppingList_ShoppingListItem"><path codeLine="89" d="M634.75,396.5869 C634.75,463.5869 634.75,582.8569 634.75,645.2369 " fill="transparent" id="ShoppingList-ShoppingListItem" style="stroke:#181818;stroke-width:1;"/><text fill="#000000" font-family="sans-serif" font-size="13" lengthAdjust="spacing" textLength="8.271" x="627.2644" y="416.234">1</text><text fill="#000000" font-family="sans-serif" font-size="13" lengthAdjust="spacing" textLength="36.5625" x="595.482" y="634.0898">many</text></g><!--link ShoppingListItem to Ingredient--><g id="link_ShoppingListItem_Ingredient"><path codeLine="90" d="M558.57,722.2969 C517.53,722.2969 475.5,722.2969 475.5,722.2969 C475.5,722.2969 475.5,749.7069 475.5,780.1069 " fill="transparent" id="ShoppingListItem-to-Ingredient" style="stroke:#181818;stroke-width:1;"/><polygon fill="#181818" points="475.5,786.1069,479.5,777.1069,475.5,781.1069,471.5,777.1069,475.5,786.1069" style="stroke:#181818;stroke-width:1;"/></g><!--SRC=[ZLDHRjf04FttAKRyvAD2QgH-8JMI0muu9U22ES1Y3_Q8zIvQ3sbfrJFqEhrLhz2r0s59x69_sBkUDxDlvhrbOedmzyzlcA2Gd1_WoNuXaa8fDD27rTCKXbAK9On8P4OKddS3liomG8L0gcIKabI6oYktf7R2GY2f4dncG-izOvXejQGV21_VGXwquZfo-ya9sNB8Xns2Dfnh9v3YHkmbn_YTVKcPiXGO4lj2ux7U0MjOQsPjaMGmOTAgOllvocCXu-1-iGg_18jbj9W_XC6qIrhT0gnAEwUV7i07icp2j5gLjdELGL08aiu-ilXlsgGJKURExvaey9JlP-X4ngXIsvjJmUWDIGmBaM4akAworbf2MFffGQhQZmHZJ0N2qA1TfZvxlxmZsH4XZxKLk9dmLAnHNgBZIeXEQ5zADDdX6hYUL- -s1_q-z0gX3hqpgm7aY1k6kpPKpMO0prfcBQWJYm68UaLbabkyDXRUpGkBO1X4SJ3hRe459jGwfRYwOSw-rcvbN5-4zXQPVUtNqb4qsgyb9US1Xoepc59b-kQZJaOwRbUA7EbVIBwjiP5QC7pT2yN4XnPzZlqDe11YUvxxIx01jX7FsbYrBF9Lj9QA6Lfzo1OzINICDC7Ft3sdZIl8Tstt-tT7L7FCoUtcb_lvVBGSJlme2cRJy74PTpVECjUxdPLgIYLViy__hhLR9sGi6hKz6MkOOxB5j4LhjvHtmQyTLntflUDmESn_]--></g></svg>